<svg xmlns="http://www.w3.org/2000/svg" width="150" height="150" viewBox="0 0 150 150"><rect width="100%" height="100%" fill="#DDDDDD"/><path fill="#999999" d="M42.8 65.295v14.93h-2.99l-6.03-10.2-.06.01v10.19h-2.99v-14.93h2.99l6.03 10.19.06-.01v-10.18zm2.09 9.5v-.22q0-2.48 1.38-4.07 1.39-1.58 3.84-1.58 2.46 0 3.85 1.58 1.4 1.58 1.4 4.07v.22q0 2.5-1.39 4.07-1.39 1.58-3.84 1.58-2.46 0-3.85-1.58-1.39-1.57-1.39-4.07m2.98-.22v.22q0 1.51.54 2.43.53.92 1.72.92 1.16 0 1.7-.92.53-.93.53-2.43v-.22q0-1.48-.54-2.41t-1.71-.93q-1.16 0-1.7.94-.54.93-.54 2.4m17.99-9.28v14.93h-3v-14.93zm2.74 3.84h2.78l.12 1.46q.53-.8 1.34-1.23.8-.44 1.86-.44t1.82.47 1.15 1.43q.51-.89 1.33-1.4.82-.5 1.93-.5 1.64 0 2.59 1.13.95 1.14.95 3.45v6.72h-2.99v-6.73q0-1.26-.41-1.75-.42-.49-1.23-.49-.63 0-1.1.28-.46.28-.74.78 0 .2.01.34t.01.28v7.29h-2.98v-6.73q0-1.23-.41-1.73-.41-.51-1.23-.51-.61 0-1.07.23-.45.23-.75.65v8.09H68.6zm27.67 11.09h-2.99q-.17-.38-.28-.8-.12-.42-.17-.86-.47.81-1.22 1.34-.75.54-1.8.54-1.74 0-2.68-.9-.95-.9-.95-2.45 0-1.63 1.26-2.53 1.25-.89 3.66-.89h1.68v-.88q0-.8-.43-1.24-.42-.45-1.24-.45-.72 0-1.12.36-.39.35-.39.98l-2.9-.01-.01-.06q-.07-1.41 1.22-2.43 1.3-1.02 3.4-1.02 1.99 0 3.23 1.01t1.24 2.88v4.58q0 .78.12 1.47.12.68.37 1.36m-5.73-2q.79 0 1.4-.39.62-.39.84-.9v-1.57H91.1q-.95 0-1.44.48-.49.47-.49 1.15 0 .55.36.89.37.34 1.01.34m7.04-3.24v-.22q0-2.62 1.15-4.23 1.14-1.61 3.2-1.61.93 0 1.64.42t1.21 1.2l.24-1.41h2.58v11.04q0 2.16-1.42 3.35-1.42 1.18-3.95 1.18-.84 0-1.79-.23-.94-.23-1.74-.63l.56-2.24q.68.33 1.4.5.71.17 1.55.17 1.23 0 1.81-.51t.58-1.6v-1.01q-.49.63-1.16.96t-1.53.33q-2.04 0-3.18-1.51-1.15-1.5-1.15-3.95m3-.22v.22q0 1.46.49 2.29.49.84 1.6.84.69 0 1.16-.25.48-.25.77-.74v-4.82q-.29-.5-.77-.78-.47-.27-1.14-.27-1.1 0-1.6.97-.51.98-.51 2.54m14.23 5.68q-2.4 0-3.83-1.54-1.44-1.54-1.44-3.91v-.41q0-2.47 1.36-4.07t3.64-1.59q2.25 0 3.49 1.35 1.24 1.36 1.24 3.66v1.63h-6.62l-.02.07q.08 1.09.73 1.8t1.77.71q.99 0 1.65-.2t1.43-.63l.82 1.84q-.68.56-1.78.92-1.1.37-2.44.37m-.27-9.21q-.83 0-1.31.63-.48.64-.59 1.67l.03.06h3.67v-.27q0-.95-.45-1.52-.44-.57-1.35-.57"/></svg>